

<svg width="225" height="47" viewBox="0 0 225 47" fill="none" xmlns="http://www.w3.org/2000/svg">
<path d="M11.6126 30.576C10.3326 30.576 9.05256 30.464 7.77256 30.24C6.49256 30.048 5.32456 29.68 4.26856 29.136C3.24456 28.592 2.41256 27.824 1.77256 26.832C1.13256 25.84 0.812563 24.56 0.812563 22.992C0.812563 21.68 1.06856 20.176 1.58056 18.48C2.12456 16.752 2.92456 15.024 3.98056 13.296C5.03656 11.536 6.34856 9.904 7.91656 8.4C9.51656 6.896 11.3566 5.696 13.4366 4.8C15.5486 3.872 17.9166 3.408 20.5406 3.408C24.3806 3.408 27.1806 4.032 28.9406 5.28C30.7006 6.496 31.5806 8.4 31.5806 10.992C31.5806 13.52 31.0526 15.952 29.9966 18.288C28.9726 20.624 27.5326 22.72 25.6766 24.576C23.8526 26.432 21.7406 27.904 19.3406 28.992C16.9406 30.048 14.3646 30.576 11.6126 30.576ZM11.2286 29.856C13.1806 29.856 15.0366 29.488 16.7966 28.752C18.5886 27.984 20.2046 26.96 21.6446 25.68C23.1166 24.368 24.3806 22.88 25.4366 21.216C26.5246 19.552 27.3566 17.808 27.9326 15.984C28.5406 14.16 28.8446 12.352 28.8446 10.56C28.8446 8.576 28.2206 7.008 26.9726 5.856C25.7246 4.704 23.6126 4.128 20.6366 4.128C18.9406 4.128 17.2446 4.56 15.5486 5.424C13.8846 6.256 12.3166 7.376 10.8446 8.784C9.40456 10.192 8.10856 11.744 6.95656 13.44C5.83656 15.136 4.95656 16.848 4.31656 18.576C3.67656 20.304 3.35656 21.92 3.35656 23.424C3.35656 25.44 3.94856 27.024 5.13256 28.176C6.34856 29.296 8.38056 29.856 11.2286 29.856ZM38.2886 30.288C37.9686 30.288 37.6486 30.208 37.3286 30.048C36.9126 29.856 36.5126 29.472 36.1286 28.896C35.7446 28.32 35.4246 27.712 35.1686 27.072C34.9126 26.432 34.7366 25.904 34.6406 25.488C33.7446 26.256 32.9766 27.008 32.3366 27.744C31.6966 28.48 30.9606 29.264 30.1286 30.096C30.0326 30.192 29.7926 30.24 29.4086 30.24C29.1846 30.24 28.9606 30.208 28.7366 30.144C28.5126 30.08 28.4006 29.984 28.4006 29.856C28.4006 29.696 28.4966 29.552 28.6886 29.424C29.8086 28.528 30.7846 27.76 31.6166 27.12C32.4486 26.448 33.4086 25.664 34.4966 24.768C34.4646 24.608 34.4006 24.256 34.3046 23.712C34.2086 23.168 34.0966 22.576 33.9686 21.936C33.8726 21.296 33.7926 20.736 33.7286 20.256C33.6646 19.744 33.6326 19.44 33.6326 19.344C33.6966 18.96 33.9046 18.624 34.2566 18.336C34.6086 18.016 35.0086 17.776 35.4566 17.616C35.9366 17.424 36.3526 17.328 36.7046 17.328C37.1526 17.328 37.3766 17.44 37.3766 17.664C37.3766 17.792 37.2486 17.856 36.9926 17.856C36.5766 17.856 36.3206 18.032 36.2246 18.384C36.1286 18.736 36.0646 19.024 36.0326 19.248C36.0006 19.44 35.9686 19.632 35.9366 19.824C35.9366 20.016 35.9366 20.208 35.9366 20.4C35.9366 20.88 35.9686 21.36 36.0326 21.84C36.0966 22.32 36.1766 22.784 36.2726 23.232C36.4326 23.104 36.7526 22.848 37.2326 22.464C37.7126 22.08 38.2726 21.632 38.9126 21.12C39.5526 20.608 40.1926 20.096 40.8326 19.584C41.4726 19.072 42.0166 18.64 42.4646 18.288C42.9126 17.936 43.1846 17.728 43.2806 17.664C43.6646 17.408 44.1286 17.296 44.6726 17.328C45.2486 17.328 45.7446 17.328 46.1606 17.328C46.2566 17.328 46.3046 17.424 46.3046 17.616C46.3046 17.904 46.2406 18.048 46.1126 18.048C45.6646 18.08 45.2006 18.192 44.7206 18.384C44.2726 18.544 43.9206 18.688 43.6646 18.816C42.9286 19.136 42.1126 19.616 41.2166 20.256C40.3526 20.864 39.5046 21.504 38.6726 22.176C37.8406 22.816 37.1046 23.408 36.4646 23.952C36.5286 24.24 36.6566 24.736 36.8486 25.44C37.0726 26.144 37.3446 26.816 37.6646 27.456C38.0486 28.288 38.5126 28.704 39.0566 28.704C39.5046 28.704 39.9366 28.448 40.3526 27.936C40.7686 27.424 41.1206 26.848 41.4086 26.208C41.7286 25.536 41.9366 24.976 42.0326 24.528C42.0966 24.336 42.1766 24.24 42.2726 24.24C42.4966 24.24 42.5766 24.416 42.5126 24.768C42.3526 25.504 42.0806 26.304 41.6966 27.168C41.3126 28.032 40.8326 28.768 40.2566 29.376C39.6806 29.984 39.0246 30.288 38.2886 30.288ZM54.9363 11.664C54.4883 11.664 54.1683 11.52 53.9763 11.232C53.8483 11.072 53.7843 10.864 53.7843 10.608C53.7843 10.096 54.0243 9.68 54.5043 9.36C54.8563 9.168 55.1763 9.072 55.4643 9.072C55.9443 9.072 56.2803 9.216 56.4723 9.504C56.6003 9.664 56.6643 9.872 56.6643 10.128C56.6643 10.64 56.4083 11.056 55.8963 11.376C55.6083 11.568 55.2883 11.664 54.9363 11.664ZM46.5843 30.144C46.2643 30.144 45.9923 30.08 45.7683 29.952C45.5763 29.824 45.4803 29.584 45.4803 29.232C45.4803 28.784 45.5923 28.256 45.8163 27.648C46.0723 27.04 46.3443 26.432 46.6323 25.824C46.9523 25.216 47.1923 24.72 47.3523 24.336C47.5763 23.888 47.8483 23.312 48.1683 22.608C48.5203 21.872 48.8403 21.184 49.1283 20.544C49.4483 19.872 49.6723 19.408 49.8003 19.152C49.3523 19.632 48.8083 20.24 48.1683 20.976C47.5603 21.68 46.9843 22.368 46.4403 23.04C45.8963 23.712 45.4803 24.24 45.1923 24.624C45.0963 24.752 45.0163 24.816 44.9523 24.816C44.8883 24.816 44.8563 24.736 44.8563 24.576C44.8563 24.32 44.9363 24.08 45.0963 23.856C45.7043 23.088 46.3763 22.224 47.1123 21.264C47.8803 20.304 48.5683 19.424 49.1763 18.624C49.7843 17.792 50.1683 17.248 50.3283 16.992C50.6803 16.928 51.1923 16.832 51.8643 16.704C52.5683 16.576 53.0483 16.4 53.3043 16.176C53.4003 16.08 53.4963 16.032 53.5923 16.032C53.6563 16.032 53.6883 16.096 53.6883 16.224C53.7203 16.32 53.6883 16.432 53.5923 16.56C53.4003 16.784 53.0643 17.328 52.5843 18.192C52.1043 19.056 51.5923 20.016 51.0483 21.072C50.5363 22.096 50.0563 23.024 49.6083 23.856C49.1603 24.72 48.7763 25.552 48.4563 26.352C48.1363 27.152 47.9763 27.728 47.9763 28.08C47.9763 28.528 48.2003 28.752 48.6483 28.752C49.0643 28.752 49.5923 28.496 50.2323 27.984C50.9043 27.472 51.5763 26.864 52.2483 26.16C52.9203 25.424 53.5123 24.752 54.0243 24.144C54.1843 23.952 54.3763 23.728 54.6003 23.472C54.8563 23.184 55.0163 23.008 55.0803 22.944C55.1443 23.008 55.1763 23.12 55.1763 23.28C55.1443 23.504 55.0643 23.728 54.9363 23.952C54.8083 24.144 54.6803 24.32 54.5523 24.48C53.8803 25.312 53.1443 26.176 52.3443 27.072C51.5443 27.936 50.6643 28.672 49.7043 29.28C48.7443 29.856 47.7043 30.144 46.5843 30.144ZM56.9227 30.384C55.6107 30.384 54.6987 30.128 54.1867 29.616C53.6747 29.104 53.4187 28.48 53.4187 27.744C53.4187 26.816 53.6587 25.824 54.1387 24.768C54.6507 23.712 55.1307 22.816 55.5787 22.08C56.0907 21.312 56.7787 20.512 57.6427 19.68C58.5067 18.848 59.4507 18.144 60.4747 17.568C61.4987 16.992 62.4907 16.704 63.4507 16.704C64.2827 16.704 64.8587 16.912 65.1787 17.328C65.4987 17.712 65.6587 18.176 65.6587 18.72C65.6587 19.712 65.3547 20.528 64.7467 21.168C64.1707 21.808 63.4507 22.336 62.5867 22.752C61.7227 23.136 60.8907 23.456 60.0907 23.712C59.6107 23.84 59.0507 23.968 58.4107 24.096C57.7707 24.224 57.1627 24.288 56.5867 24.288C56.3627 24.864 56.1867 25.424 56.0587 25.968C55.9307 26.512 55.8667 27.008 55.8667 27.456C55.8667 28 55.9947 28.448 56.2507 28.8C56.5387 29.152 57.0027 29.328 57.6427 29.328C57.8987 29.328 58.2027 29.296 58.5547 29.232C58.9067 29.168 59.2907 29.072 59.7067 28.944C60.6667 28.624 61.6107 28.112 62.5387 27.408C63.4667 26.704 64.3147 25.952 65.0827 25.152C65.8827 24.32 66.4907 23.632 66.9067 23.088C67.0027 23.184 67.0507 23.296 67.0507 23.424C67.0507 23.584 66.9387 23.84 66.7147 24.192C66.0747 25.088 65.2427 26.016 64.2187 26.976C63.1947 27.936 62.0587 28.752 60.8107 29.424C59.5627 30.064 58.2667 30.384 56.9227 30.384ZM56.9707 23.328C57.3867 23.36 57.8507 23.36 58.3627 23.328C58.9067 23.264 59.4347 23.152 59.9467 22.992C61.2587 22.608 62.2027 22 62.7787 21.168C63.3867 20.304 63.6907 19.536 63.6907 18.864C63.6907 18.48 63.6107 18.16 63.4507 17.904C63.2907 17.648 63.0347 17.52 62.6827 17.52C61.7547 17.52 60.9227 17.872 60.1867 18.576C59.4507 19.248 58.8107 20.032 58.2667 20.928C57.7227 21.824 57.2907 22.624 56.9707 23.328ZM70.0758 30.288C69.6278 30.288 69.2438 30.128 68.9238 29.808C68.6038 29.488 68.4438 28.928 68.4438 28.128C68.4438 27.424 68.4918 26.592 68.5878 25.632C68.7158 24.672 68.8918 23.696 69.1158 22.704C69.3398 21.68 69.5958 20.784 69.8838 20.016C69.3398 20.816 68.7318 21.648 68.0598 22.512C67.3878 23.344 66.8278 24.048 66.3798 24.624C66.2838 24.752 66.2038 24.816 66.1398 24.816C66.0758 24.816 66.0438 24.736 66.0438 24.576C66.0438 24.32 66.1238 24.08 66.2838 23.856C66.9558 22.928 67.7078 21.872 68.5398 20.688C69.4038 19.504 70.1398 18.432 70.7478 17.472C71.0998 17.408 71.5158 17.312 71.9958 17.184C72.5078 17.056 72.8758 16.88 73.0998 16.656C73.2598 16.56 73.3558 16.512 73.3878 16.512C73.4838 16.512 73.5318 16.576 73.5318 16.704C73.5318 16.8 73.4838 16.912 73.3878 17.04C73.0998 17.456 72.7798 18.096 72.4278 18.96C72.1078 19.824 71.7718 20.784 71.4198 21.84C71.0998 22.896 70.8278 23.936 70.6038 24.96C70.4118 25.952 70.3158 26.8 70.3158 27.504C70.3158 28.016 70.3958 28.384 70.5558 28.608C70.7158 28.8 70.9238 28.896 71.1798 28.896C71.5318 28.896 71.9478 28.72 72.4278 28.368C72.9398 28.016 73.3718 27.648 73.7238 27.264C74.1718 26.784 74.6678 26.144 75.2118 25.344C75.7878 24.544 76.3158 23.696 76.7958 22.8C77.3078 21.904 77.6918 21.088 77.9478 20.352C78.1398 19.84 78.2678 19.408 78.3318 19.056C78.3958 18.672 78.4278 18.368 78.4278 18.144C78.4278 17.76 78.3798 17.488 78.2838 17.328C78.1878 17.168 78.1078 17.072 78.0438 17.04C77.8518 16.976 77.7558 16.896 77.7558 16.8C77.7558 16.736 77.8198 16.688 77.9478 16.656C78.0758 16.592 78.2038 16.592 78.3318 16.656C78.7478 16.784 79.1638 16.976 79.5798 17.232C79.9958 17.456 80.2038 17.904 80.2038 18.576C80.2038 18.736 80.1878 18.928 80.1558 19.152C80.1238 19.344 80.0598 19.568 79.9638 19.824C79.7718 20.336 79.3718 21.056 78.7638 21.984C78.1878 22.912 77.5158 23.888 76.7478 24.912C75.9798 25.936 75.2118 26.864 74.4438 27.696C73.6758 28.528 73.0038 29.12 72.4278 29.472C72.0438 29.696 71.6438 29.888 71.2278 30.048C70.8118 30.208 70.4278 30.288 70.0758 30.288ZM86.7772 30.144C86.4572 30.144 86.1852 30.08 85.9612 29.952C85.7372 29.824 85.6252 29.584 85.6252 29.232C85.6252 28.784 85.7372 28.272 85.9612 27.696C86.1852 27.12 86.4412 26.56 86.7292 26.016C87.0172 25.44 87.2732 24.976 87.4972 24.624C86.3772 25.808 85.2092 26.928 83.9932 27.984C83.3852 28.496 82.7132 28.976 81.9772 29.424C81.2412 29.872 80.4572 30.096 79.6252 30.096C79.3052 30.096 79.0812 30 78.9532 29.808C78.8252 29.584 78.7612 29.328 78.7612 29.04C78.7612 28.88 78.7772 28.768 78.8092 28.704C78.9692 27.456 79.3692 26.16 80.0092 24.816C80.6492 23.472 81.4332 22.208 82.3612 21.024C83.2892 19.84 84.2332 18.88 85.1932 18.144C86.2812 17.312 87.4812 16.896 88.7932 16.896H94.3132C94.4732 16.896 94.5532 16.96 94.5532 17.088C94.5532 17.344 94.4092 17.472 94.1212 17.472C93.8012 17.472 93.4812 17.68 93.1612 18.096C92.8412 18.48 92.6012 18.8 92.4412 19.056C92.2172 19.408 91.8652 20 91.3852 20.832C90.9052 21.664 90.4092 22.576 89.8972 23.568C89.4172 24.528 89.0012 25.424 88.6492 26.256C88.2972 27.088 88.1212 27.696 88.1212 28.08C88.1212 28.528 88.3452 28.752 88.7932 28.752C89.2732 28.752 89.8172 28.528 90.4252 28.08C91.0332 27.632 91.6412 27.088 92.2492 26.448C92.8892 25.776 93.4652 25.12 93.9772 24.48C94.5212 23.808 94.9532 23.28 95.2732 22.896C95.4652 23.088 95.4492 23.36 95.2252 23.712C95.0332 24.032 94.8572 24.288 94.6972 24.48C94.0572 25.312 93.3212 26.176 92.4892 27.072C91.6572 27.936 90.7452 28.672 89.7532 29.28C88.7932 29.856 87.8012 30.144 86.7772 30.144ZM81.5932 28.464C81.9772 28.464 82.5052 28.192 83.1772 27.648C83.8812 27.072 84.6332 26.368 85.4332 25.536C86.2332 24.672 86.9852 23.776 87.6892 22.848C88.3932 21.888 88.9692 21.024 89.4172 20.256C89.8972 19.456 90.1372 18.848 90.1372 18.432C90.1372 18.08 90.0252 17.84 89.8012 17.712C89.6092 17.584 89.3532 17.52 89.0332 17.52C88.5212 17.52 87.9612 17.712 87.3532 18.096C86.7772 18.448 86.3132 18.8 85.9612 19.152C85.5772 19.504 85.1132 20.064 84.5692 20.832C84.0572 21.568 83.5452 22.384 83.0332 23.28C82.5212 24.176 82.0892 25.04 81.7372 25.872C81.3852 26.704 81.2092 27.376 81.2092 27.888C81.2092 28.272 81.3372 28.464 81.5932 28.464ZM89.9452 14.016C88.9852 14.016 88.5052 13.616 88.5052 12.816C88.5052 12.592 88.6012 12.272 88.7932 11.856C88.9852 11.408 89.2252 10.992 89.5132 10.608C89.8332 10.192 90.1852 9.936 90.5692 9.84C90.8252 9.488 91.1612 9.2 91.5772 8.976C91.9932 8.72 92.4092 8.592 92.8252 8.592C93.3372 8.592 93.7052 8.752 93.9292 9.072C94.1852 9.36 94.3132 9.712 94.3132 10.128C94.3132 10.768 94.0892 11.392 93.6412 12C93.1932 12.576 92.6332 13.056 91.9612 13.44C91.3212 13.824 90.6492 14.016 89.9452 14.016ZM90.5212 13.296C91.1932 13.296 91.8012 12.992 92.3452 12.384C92.8892 11.744 93.2092 11.152 93.3052 10.608C93.3052 10.544 93.3052 10.48 93.3052 10.416C93.3372 10.352 93.3532 10.288 93.3532 10.224C93.3532 9.968 93.2892 9.76 93.1612 9.6C93.0652 9.408 92.8892 9.312 92.6332 9.312C92.4092 9.312 92.1852 9.36 91.9612 9.456C91.7692 9.552 91.5772 9.664 91.3852 9.792L91.7692 9.984C91.4812 10.496 91.1452 10.896 90.7612 11.184C90.3772 11.472 90.1212 11.936 89.9932 12.576V12.72C89.9932 13.104 90.1692 13.296 90.5212 13.296ZM94.6466 30.72C94.5186 30.72 94.5186 30.576 94.6466 30.288C94.8066 30 94.9506 29.68 95.0786 29.328C95.2386 28.976 95.3986 28.592 95.5586 28.176C95.8786 27.408 96.2306 26.544 96.6146 25.584C96.9986 24.624 97.3666 23.696 97.7186 22.8C98.0706 21.872 98.3746 21.088 98.6306 20.448C98.9186 19.776 99.1106 19.344 99.2066 19.152C98.7586 19.632 98.2146 20.24 97.5746 20.976C96.9666 21.68 96.3906 22.368 95.8466 23.04C95.3026 23.712 94.8866 24.24 94.5986 24.624C94.5026 24.752 94.4226 24.816 94.3586 24.816C94.2946 24.816 94.2626 24.736 94.2626 24.576C94.2626 24.32 94.3426 24.08 94.5026 23.856C95.1106 23.088 95.7826 22.224 96.5186 21.264C97.2866 20.304 97.9746 19.424 98.5826 18.624C99.1906 17.792 99.5746 17.248 99.7346 16.992C100.087 16.928 100.599 16.832 101.271 16.704C101.975 16.576 102.455 16.4 102.711 16.176C102.807 16.08 102.903 16.032 102.999 16.032C103.063 16.032 103.095 16.096 103.095 16.224C103.127 16.32 103.095 16.432 102.999 16.56C102.807 16.784 102.471 17.312 101.991 18.144C101.543 18.944 101.047 19.84 100.503 20.832C99.9906 21.824 99.5106 22.72 99.0626 23.52C99.4466 23.008 99.8626 22.512 100.311 22.032C100.759 21.552 101.191 21.088 101.607 20.64C101.991 20.256 102.519 19.776 103.191 19.2C103.863 18.624 104.567 18.096 105.303 17.616C106.039 17.136 106.679 16.864 107.223 16.8C107.351 16.768 107.463 16.752 107.559 16.752C107.687 16.752 107.783 16.752 107.847 16.752C108.551 16.752 108.903 17.008 108.903 17.52C108.903 17.904 108.695 18.416 108.279 19.056C108.055 19.408 107.703 20 107.223 20.832C106.775 21.632 106.311 22.512 105.831 23.472C105.383 24.4 104.983 25.28 104.631 26.112C104.311 26.912 104.151 27.504 104.151 27.888C104.151 28.336 104.375 28.56 104.823 28.56C105.367 28.56 105.959 28.288 106.599 27.744C107.271 27.2 107.991 26.512 108.759 25.68C109.527 24.816 110.295 23.904 111.063 22.944C111.127 23.008 111.159 23.12 111.159 23.28C111.159 23.504 111.079 23.728 110.919 23.952C110.791 24.144 110.663 24.32 110.535 24.48C110.215 24.896 109.783 25.424 109.239 26.064C108.727 26.672 108.199 27.28 107.655 27.888C107.111 28.464 106.615 28.928 106.167 29.28C105.847 29.504 105.431 29.744 104.919 30C104.407 30.256 103.895 30.384 103.383 30.384C102.807 30.384 102.407 30.24 102.183 29.952C101.959 29.632 101.847 29.248 101.847 28.8C101.847 28.288 101.943 27.744 102.135 27.168C102.327 26.592 102.535 26.048 102.759 25.536C103.015 24.992 103.207 24.592 103.335 24.336C103.911 23.216 104.439 22.16 104.919 21.168C105.399 20.176 105.735 19.472 105.927 19.056C106.023 18.864 106.071 18.704 106.071 18.576C106.071 18.352 105.895 18.336 105.543 18.528C105.191 18.72 104.759 19.008 104.247 19.392C103.767 19.776 103.319 20.16 102.903 20.544C102.487 20.896 102.215 21.136 102.087 21.264C100.903 22.512 99.8626 23.904 98.9666 25.44C98.1026 26.944 97.3666 28.496 96.7586 30.096C96.3426 30.128 95.9266 30.24 95.5106 30.432C95.0946 30.624 94.8066 30.72 94.6466 30.72ZM101.61 46.8C100.394 46.8 99.2263 46.512 98.1063 45.936C96.9543 45.392 96.1063 44.544 95.5623 43.392C95.3383 42.976 95.1943 42.528 95.1303 42.048C95.0663 41.6 95.0343 41.152 95.0343 40.704V40.224C95.0343 39.968 95.0663 39.728 95.1303 39.504C95.1943 39.28 95.3703 39.168 95.6583 39.168C95.7223 39.168 95.7543 39.2 95.7543 39.264C95.7543 39.456 95.7383 39.648 95.7063 39.84C95.6743 40.032 95.6583 40.24 95.6583 40.464C95.6583 41.936 96.1383 43.056 97.0983 43.824C98.0263 44.592 99.1943 44.976 100.602 44.976C101.178 44.976 101.77 44.912 102.378 44.784C102.986 44.656 103.546 44.48 104.058 44.256C106.106 43.392 107.882 42.144 109.386 40.512C110.922 38.88 112.25 37.04 113.37 34.992C114.522 32.944 115.53 30.848 116.394 28.704C117.29 26.528 118.122 24.48 118.89 22.56C118.218 23.648 117.482 24.624 116.682 25.488C115.882 26.32 114.986 27.152 113.994 27.984C113.386 28.496 112.714 28.976 111.978 29.424C111.274 29.872 110.506 30.096 109.674 30.096C109.354 30.096 109.13 30 109.002 29.808C108.874 29.584 108.81 29.328 108.81 29.04V28.704C108.97 27.456 109.37 26.16 110.01 24.816C110.682 23.472 111.482 22.208 112.41 21.024C113.338 19.84 114.282 18.88 115.242 18.144C116.33 17.312 117.53 16.896 118.842 16.896H124.362C124.522 16.896 124.602 16.96 124.602 17.088C124.602 17.344 124.458 17.472 124.17 17.472C123.818 17.472 123.482 17.616 123.162 17.904C122.842 18.192 122.602 18.464 122.442 18.72C122.122 19.232 121.706 20.016 121.194 21.072C120.682 22.128 120.122 23.344 119.514 24.72C118.906 26.064 118.298 27.44 117.69 28.848C117.082 30.224 116.522 31.52 116.01 32.736C115.242 34.56 114.362 36.336 113.37 38.064C112.41 39.824 111.258 41.392 109.914 42.768C108.602 44.176 107.034 45.28 105.21 46.08C104.122 46.56 102.922 46.8 101.61 46.8ZM111.642 28.464C112.026 28.464 112.554 28.192 113.226 27.648C113.898 27.072 114.634 26.368 115.434 25.536C116.234 24.672 116.986 23.776 117.69 22.848C118.394 21.888 118.97 21.024 119.418 20.256C119.898 19.456 120.138 18.848 120.138 18.432C120.138 18.08 120.026 17.84 119.802 17.712C119.61 17.584 119.354 17.52 119.034 17.52C118.522 17.52 117.978 17.712 117.402 18.096C116.826 18.448 116.362 18.8 116.01 19.152C115.626 19.504 115.162 20.064 114.618 20.832C114.106 21.568 113.578 22.384 113.034 23.28C112.522 24.176 112.09 25.04 111.738 25.872C111.386 26.704 111.21 27.376 111.21 27.888C111.21 28.272 111.354 28.464 111.642 28.464ZM125.785 30.768C125.209 30.768 124.601 30.688 123.961 30.528C123.321 30.368 122.745 30.112 122.233 29.76C121.753 29.376 121.433 28.864 121.273 28.224C121.241 28.128 121.225 27.984 121.225 27.792C121.225 27.344 121.321 26.848 121.513 26.304C121.737 25.76 122.009 25.376 122.329 25.152C122.457 25.088 122.553 25.088 122.617 25.152C122.713 25.216 122.729 25.28 122.665 25.344C122.633 25.44 122.585 25.568 122.521 25.728C122.457 25.856 122.409 26 122.377 26.16C122.281 26.992 122.457 27.728 122.905 28.368C123.097 28.624 123.321 28.864 123.577 29.088C123.865 29.312 124.137 29.504 124.393 29.664C124.617 29.792 124.889 29.888 125.209 29.952C125.529 29.984 125.849 30 126.169 30C126.681 30 127.177 29.936 127.657 29.808C128.137 29.68 128.489 29.472 128.713 29.184C129.129 28.672 129.337 28.096 129.337 27.456C129.337 26.976 129.209 26.464 128.953 25.92C128.697 25.376 128.297 24.8 127.753 24.192C127.401 23.808 127.065 23.392 126.745 22.944C126.425 22.496 126.217 22.016 126.121 21.504C126.089 21.408 126.057 21.312 126.025 21.216C126.025 21.12 126.025 21.024 126.025 20.928C125.609 21.536 125.177 22.112 124.729 22.656C124.313 23.168 123.945 23.616 123.625 24C123.497 24.192 123.385 24.288 123.289 24.288C123.225 24.288 123.193 24.224 123.193 24.096C123.193 23.808 123.321 23.504 123.577 23.184C123.833 22.896 124.121 22.544 124.441 22.128C124.761 21.68 125.017 21.328 125.209 21.072C125.753 20.272 126.153 19.648 126.409 19.2C126.697 18.72 127.001 18.288 127.321 17.904C127.673 17.488 128.105 17.152 128.617 16.896C129.161 16.64 129.721 16.512 130.297 16.512C130.969 16.512 131.577 16.624 132.121 16.848C132.697 17.04 133.001 17.552 133.033 18.384C133.033 18.768 132.953 19.168 132.793 19.584C132.665 19.968 132.521 20.336 132.361 20.688C132.265 20.88 132.121 21.024 131.929 21.12C131.769 21.184 131.689 21.152 131.689 21.024C131.689 20.896 131.705 20.752 131.737 20.592C131.769 20.432 131.785 20.288 131.785 20.16C131.785 19.616 131.689 19.136 131.497 18.72C131.337 18.272 131.097 17.952 130.777 17.76C130.457 17.536 130.121 17.424 129.769 17.424C129.257 17.424 128.761 17.632 128.281 18.048C127.801 18.432 127.561 18.944 127.561 19.584C127.561 19.648 127.561 19.728 127.561 19.824C127.561 19.92 127.577 20 127.609 20.064C127.737 20.576 128.121 21.152 128.761 21.792C129.401 22.432 129.897 22.992 130.249 23.472C130.857 24.304 131.161 25.152 131.161 26.016C131.161 26.88 130.905 27.68 130.393 28.416C129.913 29.12 129.257 29.68 128.425 30.096C127.625 30.544 126.745 30.768 125.785 30.768ZM147.643 31.872C146.651 31.872 145.707 31.584 144.811 31.008C143.915 30.464 143.243 29.616 142.795 28.464C142.635 28.048 142.523 27.6 142.459 27.12C142.395 26.64 142.363 26.192 142.363 25.776V25.344C142.363 25.088 142.379 24.832 142.411 24.576C142.475 24.32 142.619 24.192 142.843 24.192C142.907 24.192 142.939 24.224 142.939 24.288C142.939 24.48 142.923 24.688 142.891 24.912C142.891 25.104 142.891 25.296 142.891 25.488C142.891 26.992 143.259 28.128 143.995 28.896C144.763 29.664 145.707 30.048 146.827 30.048C147.947 30.048 149.035 29.728 150.091 29.088C151.147 28.448 152.123 27.632 153.019 26.64C153.915 25.648 154.763 24.416 155.563 22.944C156.363 21.472 157.115 19.92 157.819 18.288C158.523 16.624 159.179 14.992 159.787 13.392C160.427 11.792 161.019 10.368 161.563 9.12C161.883 8.384 162.475 7.76 163.339 7.248C164.235 6.736 165.083 6.368 165.883 6.144C165.659 6.112 165.435 6.096 165.211 6.096C165.019 6.064 164.827 6.032 164.635 6L157.867 5.328C157.355 5.264 156.683 5.216 155.851 5.184C155.019 5.152 154.139 5.136 153.211 5.136C151.963 5.136 150.683 5.216 149.371 5.376C148.059 5.504 146.875 5.744 145.819 6.096C144.763 6.448 143.995 6.976 143.515 7.68C143.259 8.064 143.131 8.512 143.131 9.024C143.131 9.536 143.275 10.016 143.563 10.464C143.851 10.912 144.219 11.264 144.667 11.52C144.731 11.584 144.763 11.632 144.763 11.664C144.763 11.76 144.683 11.84 144.523 11.904C144.395 11.968 144.251 11.968 144.091 11.904C143.803 11.744 143.467 11.472 143.083 11.088C142.699 10.704 142.347 10.304 142.027 9.888C141.739 9.44 141.531 9.072 141.403 8.784C141.211 8.24 141.115 7.76 141.115 7.344C141.115 6.576 141.371 5.952 141.883 5.472C142.427 4.96 143.115 4.576 143.947 4.32C144.811 4.032 145.723 3.84 146.683 3.744C147.675 3.616 148.619 3.552 149.515 3.552C149.867 3.552 150.203 3.552 150.523 3.552C150.843 3.552 151.147 3.568 151.435 3.6C152.459 3.664 153.531 3.728 154.651 3.792C155.771 3.856 156.907 3.936 158.059 4.032L165.691 4.656C166.203 4.688 166.971 4.752 167.995 4.848C169.051 4.912 170.123 4.944 171.211 4.944C172.395 4.944 173.483 4.88 174.475 4.752C175.467 4.592 176.123 4.32 176.443 3.936C176.507 3.808 176.603 3.776 176.731 3.84C176.859 3.904 176.891 3.984 176.827 4.08C176.731 4.464 176.603 4.752 176.443 4.944C176.283 5.264 176.059 5.616 175.771 6C175.515 6.384 175.115 6.64 174.571 6.768C174.443 6.8 174.267 6.832 174.043 6.864C173.819 6.864 173.579 6.864 173.323 6.864C172.587 6.864 171.691 6.816 170.635 6.72C169.611 6.592 168.603 6.464 167.611 6.336C166.651 6.496 165.819 6.944 165.115 7.68C164.411 8.416 163.803 9.264 163.291 10.224C162.779 11.152 162.331 12.032 161.947 12.864C161.243 14.304 160.651 15.632 160.171 16.848C159.723 18.032 159.163 19.344 158.491 20.784C157.819 22.256 157.115 23.712 156.379 25.152C155.643 26.56 154.747 27.84 153.691 28.992C152.891 29.856 151.963 30.544 150.907 31.056C149.851 31.6 148.763 31.872 147.643 31.872ZM163.658 30.096C163.146 30.096 162.682 30 162.266 29.808C161.882 29.584 161.69 29.12 161.69 28.416C161.69 27.296 161.978 26.176 162.554 25.056C163.13 23.904 163.722 22.896 164.33 22.032C164.874 21.296 165.482 20.608 166.154 19.968C166.858 19.296 167.61 18.72 168.41 18.24C168.922 17.92 169.61 17.584 170.474 17.232C171.37 16.848 172.122 16.656 172.73 16.656C173.242 16.656 173.69 16.8 174.074 17.088C174.458 17.344 174.65 17.824 174.65 18.528C174.65 19.616 174.362 20.736 173.786 21.888C173.242 23.008 172.666 24 172.058 24.864C171.77 25.248 171.482 25.616 171.194 25.968C170.906 26.288 170.586 26.624 170.234 26.976C171.418 26.976 172.506 26.64 173.498 25.968C174.49 25.264 175.354 24.416 176.09 23.424L176.186 23.328C176.282 23.328 176.33 23.424 176.33 23.616C176.33 23.84 176.266 24.048 176.138 24.24C175.498 25.136 174.698 25.936 173.738 26.64C172.778 27.312 171.69 27.648 170.474 27.648C170.346 27.648 170.218 27.648 170.09 27.648C169.962 27.648 169.834 27.632 169.706 27.6C167.914 29.264 165.898 30.096 163.658 30.096ZM164.906 29.28C165.354 29.28 165.834 29.12 166.346 28.8C166.89 28.48 167.306 28.176 167.594 27.888C168.138 27.344 168.634 26.768 169.082 26.16C169.53 25.52 169.946 24.88 170.33 24.24C170.778 23.472 171.226 22.56 171.674 21.504C172.122 20.448 172.346 19.456 172.346 18.528C172.346 17.792 172.09 17.424 171.578 17.424C171.162 17.424 170.65 17.6 170.042 17.952C169.466 18.304 169.034 18.624 168.746 18.912C167.658 20.032 166.746 21.248 166.01 22.56C165.594 23.296 165.146 24.16 164.666 25.152C164.186 26.144 163.946 27.056 163.946 27.888C163.946 28.016 163.946 28.144 163.946 28.272C163.978 28.368 164.01 28.48 164.042 28.608C164.17 29.056 164.458 29.28 164.906 29.28ZM177.609 30.432C177.193 30.432 176.697 30.352 176.121 30.192C175.545 30.064 175.257 29.712 175.257 29.136C175.257 28.912 175.305 28.656 175.401 28.368C175.497 28.08 175.593 27.824 175.689 27.6C176.009 26.768 176.345 25.92 176.697 25.056C177.049 24.192 177.417 23.312 177.801 22.416C177.385 22.896 176.985 23.344 176.601 23.76C176.249 24.144 175.993 24.432 175.833 24.624C175.737 24.752 175.657 24.816 175.593 24.816C175.529 24.816 175.497 24.736 175.497 24.576C175.497 24.32 175.577 24.08 175.737 23.856C176.185 23.28 176.697 22.672 177.273 22.032C177.849 21.392 178.409 20.72 178.953 20.016C180.297 17.2 181.801 14.48 183.465 11.856C185.129 9.2 187.001 6.848 189.081 4.8C189.721 4.192 190.441 3.568 191.241 2.928C192.041 2.288 192.889 1.744 193.785 1.296C194.713 0.847998 195.625 0.623998 196.521 0.623998C197.001 0.623998 197.433 0.751998 197.817 1.008C198.233 1.264 198.457 1.664 198.489 2.208V3.6C198.489 3.728 198.393 3.792 198.201 3.792C198.105 3.792 198.057 3.76 198.057 3.696C198.057 3.184 197.833 2.848 197.385 2.688C196.937 2.496 196.489 2.4 196.041 2.4C194.281 2.4 192.697 2.864 191.289 3.792C189.881 4.688 188.633 5.872 187.545 7.344C186.457 8.784 185.481 10.384 184.617 12.144C183.753 13.872 182.969 15.584 182.265 17.28C181.593 18.944 180.953 20.432 180.345 21.744C180.345 21.744 180.345 21.776 180.345 21.84C180.345 21.904 180.361 21.936 180.393 21.936C180.425 21.936 180.681 21.696 181.161 21.216C181.673 20.704 182.297 20.112 183.033 19.44C183.801 18.768 184.601 18.192 185.433 17.712C186.265 17.2 187.033 16.944 187.737 16.944C188.089 16.944 188.313 17.072 188.409 17.328C188.505 17.552 188.553 17.808 188.553 18.096V18.528C188.393 19.712 187.977 20.992 187.305 22.368C186.665 23.744 185.833 25.056 184.809 26.304C183.817 27.52 182.697 28.512 181.449 29.28C180.233 30.048 178.953 30.432 177.609 30.432ZM178.377 29.616C178.889 29.616 179.433 29.424 180.009 29.04C180.617 28.624 181.081 28.256 181.401 27.936C181.785 27.584 182.249 27.04 182.793 26.304C183.337 25.536 183.865 24.704 184.377 23.808C184.889 22.912 185.321 22.048 185.673 21.216C186.025 20.384 186.201 19.712 186.201 19.2C186.201 19.04 186.169 18.896 186.105 18.768C186.041 18.64 185.929 18.576 185.769 18.576C185.481 18.576 185.097 18.752 184.617 19.104C184.169 19.456 183.673 19.888 183.129 20.4C182.617 20.88 182.137 21.36 181.689 21.84C181.273 22.288 180.969 22.624 180.777 22.848C180.425 23.232 179.977 23.792 179.433 24.528C178.889 25.264 178.393 26.016 177.945 26.784C177.529 27.52 177.321 28.144 177.321 28.656C177.321 29.296 177.673 29.616 178.377 29.616ZM195.012 30.144C194.692 30.144 194.42 30.08 194.196 29.952C193.972 29.824 193.86 29.584 193.86 29.232C193.86 28.784 193.972 28.272 194.196 27.696C194.42 27.12 194.676 26.56 194.964 26.016C195.252 25.44 195.508 24.976 195.732 24.624C194.612 25.808 193.444 26.928 192.228 27.984C191.62 28.496 190.948 28.976 190.212 29.424C189.476 29.872 188.692 30.096 187.86 30.096C187.54 30.096 187.316 30 187.188 29.808C187.06 29.584 186.996 29.328 186.996 29.04C186.996 28.88 187.012 28.768 187.044 28.704C187.204 27.456 187.604 26.16 188.244 24.816C188.884 23.472 189.668 22.208 190.596 21.024C191.524 19.84 192.468 18.88 193.428 18.144C194.516 17.312 195.716 16.896 197.028 16.896H202.548C202.708 16.896 202.788 16.96 202.788 17.088C202.788 17.344 202.644 17.472 202.356 17.472C202.036 17.472 201.716 17.68 201.396 18.096C201.076 18.48 200.836 18.8 200.676 19.056C200.452 19.408 200.1 20 199.62 20.832C199.14 21.664 198.644 22.576 198.132 23.568C197.652 24.528 197.236 25.424 196.884 26.256C196.532 27.088 196.356 27.696 196.356 28.08C196.356 28.528 196.58 28.752 197.028 28.752C197.508 28.752 198.052 28.528 198.66 28.08C199.268 27.632 199.876 27.088 200.484 26.448C201.124 25.776 201.7 25.12 202.212 24.48C202.756 23.808 203.188 23.28 203.508 22.896C203.7 23.088 203.684 23.36 203.46 23.712C203.268 24.032 203.092 24.288 202.932 24.48C202.292 25.312 201.556 26.176 200.724 27.072C199.892 27.936 198.98 28.672 197.988 29.28C197.028 29.856 196.036 30.144 195.012 30.144ZM189.828 28.464C190.212 28.464 190.74 28.192 191.412 27.648C192.116 27.072 192.868 26.368 193.668 25.536C194.468 24.672 195.22 23.776 195.924 22.848C196.628 21.888 197.204 21.024 197.652 20.256C198.132 19.456 198.372 18.848 198.372 18.432C198.372 18.08 198.26 17.84 198.036 17.712C197.844 17.584 197.588 17.52 197.268 17.52C196.756 17.52 196.196 17.712 195.588 18.096C195.012 18.448 194.548 18.8 194.196 19.152C193.812 19.504 193.348 20.064 192.804 20.832C192.292 21.568 191.78 22.384 191.268 23.28C190.756 24.176 190.324 25.04 189.972 25.872C189.62 26.704 189.444 27.376 189.444 27.888C189.444 28.272 189.572 28.464 189.828 28.464ZM211.185 30.24C210.385 30.24 209.777 29.968 209.361 29.424C209.105 29.04 208.849 28.464 208.593 27.696C208.337 26.928 208.113 26.128 207.921 25.296C207.729 24.464 207.569 23.792 207.441 23.28C206.545 24.432 205.745 25.584 205.041 26.736C204.369 27.888 203.921 28.784 203.697 29.424C203.633 29.616 203.409 29.776 203.025 29.904C202.673 30.032 202.321 30.096 201.969 30.096C201.457 30.096 201.265 29.936 201.393 29.616C202.385 27.408 203.329 25.28 204.225 23.232C205.121 21.184 206.065 19.12 207.057 17.04C208.081 14.96 209.233 12.8 210.513 10.56C211.409 8.928 212.481 7.36 213.729 5.856C215.009 4.32 216.369 3.072 217.809 2.112C219.249 1.12 220.705 0.623998 222.177 0.623998C222.657 0.623998 223.105 0.751998 223.521 1.008C223.937 1.264 224.145 1.664 224.145 2.208V3.6C224.145 3.728 224.049 3.792 223.857 3.792C223.761 3.792 223.713 3.76 223.713 3.696C223.713 3.184 223.489 2.848 223.041 2.688C222.593 2.496 222.161 2.4 221.745 2.4C220.625 2.4 219.489 2.624 218.337 3.072C217.057 3.584 215.985 4.352 215.121 5.376C214.257 6.4 213.457 7.488 212.721 8.64C211.761 10.112 210.817 11.84 209.889 13.824C208.961 15.776 208.097 17.744 207.297 19.728C206.529 21.712 205.841 23.504 205.233 25.104C205.585 24.656 205.937 24.208 206.289 23.76C206.641 23.312 206.977 22.896 207.297 22.512C207.297 22.448 207.281 22.384 207.249 22.32C207.249 22.256 207.249 22.192 207.249 22.128C207.249 21.904 207.297 21.712 207.393 21.552C207.489 21.392 207.617 21.2 207.777 20.976C208.001 20.656 208.209 20.416 208.401 20.256C208.593 20.064 208.801 19.824 209.025 19.536L209.169 20.352C210.577 18.912 211.809 17.872 212.865 17.232C213.601 16.784 214.321 16.56 215.025 16.56C215.729 16.56 216.081 16.832 216.081 17.376C216.081 17.824 215.857 18.384 215.409 19.056C215.249 19.28 215.153 19.44 215.121 19.536C215.089 19.632 215.025 19.728 214.929 19.824C214.897 19.856 214.833 19.856 214.737 19.824C214.641 19.792 214.593 19.744 214.593 19.68C214.593 19.296 214.465 19.056 214.209 18.96C213.953 18.832 213.665 18.768 213.345 18.768C212.737 18.768 212.081 18.992 211.377 19.44C210.705 19.856 210.017 20.432 209.313 21.168C209.473 21.968 209.649 22.848 209.841 23.808C210.065 24.736 210.305 25.6 210.561 26.4C210.817 27.2 211.057 27.792 211.281 28.176C211.441 28.432 211.665 28.608 211.953 28.704C212.241 28.768 212.481 28.8 212.673 28.8C213.121 28.8 213.633 28.576 214.209 28.128C214.817 27.648 215.425 27.088 216.033 26.448C216.673 25.776 217.249 25.12 217.761 24.48C218.305 23.84 218.721 23.328 219.009 22.944C219.137 23.104 219.169 23.264 219.105 23.424C219.073 23.616 218.977 23.824 218.817 24.048C218.689 24.24 218.561 24.416 218.433 24.576C217.793 25.376 217.105 26.192 216.369 27.024C215.633 27.824 214.849 28.544 214.017 29.184C213.665 29.472 213.233 29.728 212.721 29.952C212.209 30.144 211.697 30.24 211.185 30.24Z" fill="white"/>
</svg>
