<svg width="37" height="41" viewBox="0 0 37 41" fill="none" xmlns="http://www.w3.org/2000/svg">
<path fill-rule="evenodd" clip-rule="evenodd" d="M26.3452 0.0344336C26.3476 0.659844 26.5302 9.69826 36.0155 10.262C36.0155 12.8686 36.0187 14.7584 36.0187 17.2456C35.3004 17.2873 29.7742 16.8861 26.3348 13.8183L26.3244 27.4139C26.4549 36.8504 19.5106 42.5928 10.4337 40.6092C-5.21838 35.9271 -0.0172987 12.7124 15.6988 15.1972C15.6988 22.6917 15.7028 15.1948 15.7028 22.6917C9.2101 21.7364 7.03838 27.1377 8.76407 31.0047C10.3336 34.5257 16.7983 35.2888 19.0533 30.3216C19.3088 29.3494 19.4361 28.2412 19.4361 26.9967V0L26.3452 0.0344336Z" fill="url(#paint0_linear_2_9)"/>
<defs>
<linearGradient id="paint0_linear_2_9" x1="18.5001" y1="0" x2="18.5001" y2="41.0001" gradientUnits="none">
<stop stop-color="#1D1D1D"/>
<stop offset="0.5" stop-color="none"/>
<stop offset="1"/>
</linearGradient>
</defs>
</svg>
