<svg width="41" height="41" viewBox="0 0 41 41" fill="none" xmlns="http://www.w3.org/2000/svg">
<path d="M20.5 15.416C19.4945 15.416 18.5115 15.7142 17.6755 16.2728C16.8394 16.8314 16.1878 17.6255 15.803 18.5544C15.4182 19.4834 15.3175 20.5056 15.5137 21.4918C15.7099 22.478 16.1941 23.3839 16.9051 24.0949C17.6161 24.8059 18.522 25.2901 19.5082 25.4863C20.4944 25.6825 21.5166 25.5818 22.4456 25.197C23.3745 24.8122 24.1686 24.1606 24.7272 23.3245C25.2858 22.4885 25.584 21.5055 25.584 20.5C25.584 19.8324 25.4525 19.1713 25.197 18.5544C24.9415 17.9376 24.567 17.3772 24.0949 16.9051C23.6228 16.433 23.0624 16.0585 22.4456 15.803C21.8287 15.5475 21.1676 15.416 20.5 15.416ZM40.8565 10.3935C40.8457 8.8104 40.5542 7.24177 39.9955 5.7605C39.584 4.67658 38.9474 3.69224 38.1276 2.87243C37.3078 2.05262 36.3234 1.41597 35.2395 1.0045C33.7582 0.445801 32.1896 0.154285 30.6065 0.1435C27.962 -1.3411e-07 27.183 0 20.5 0C13.817 0 13.038 -1.3411e-07 10.3935 0.1435C8.8104 0.154285 7.24177 0.445801 5.7605 1.0045C4.67658 1.41597 3.69224 2.05262 2.87243 2.87243C2.05262 3.69224 1.41597 4.67658 1.0045 5.7605C0.445801 7.24177 0.154285 8.8104 0.1435 10.3935C-1.3411e-07 13.038 0 13.817 0 20.5C0 27.183 -1.3411e-07 27.962 0.1435 30.6065C0.165566 32.1952 0.456687 33.7686 1.0045 35.26C1.41415 36.339 2.05026 37.3176 2.87 38.13C3.6863 38.9547 4.67275 39.5914 5.7605 39.9955C7.24177 40.5542 8.8104 40.8457 10.3935 40.8565C13.038 41 13.817 41 20.5 41C27.183 41 27.962 41 30.6065 40.8565C32.1896 40.8457 33.7582 40.5542 35.2395 39.9955C36.3273 39.5914 37.3137 38.9547 38.13 38.13C38.9497 37.3176 39.5859 36.339 39.9955 35.26C40.5537 33.7715 40.8451 32.1962 40.8565 30.6065C41 27.962 41 27.183 41 20.5C41 13.817 41 13.038 40.8565 10.3935ZM35.6495 26.7935C35.5837 28.0586 35.3137 29.3047 34.85 30.4835C34.452 31.4669 33.8604 32.3601 33.1103 33.1103C32.3601 33.8604 31.4669 34.452 30.4835 34.85C29.2935 35.2879 28.0405 35.5302 26.773 35.5675C25.1535 35.5675 24.723 35.5675 20.5 35.5675C16.277 35.5675 15.8465 35.5675 14.227 35.5675C12.9595 35.5302 11.7065 35.2879 10.5165 34.85C9.49991 34.4722 8.58187 33.8695 7.831 33.087C7.08822 32.3516 6.51458 31.4631 6.15 30.4835C5.71039 29.2947 5.47474 28.0403 5.453 26.773C5.453 25.1535 5.453 24.723 5.453 20.5C5.453 16.277 5.453 15.8465 5.453 14.227C5.47474 12.9597 5.71039 11.7053 6.15 10.5165C6.52778 9.49991 7.13046 8.58187 7.913 7.831C8.65168 7.09223 9.53919 6.51919 10.5165 6.15C11.7065 5.71213 12.9595 5.46983 14.227 5.4325C15.8465 5.4325 16.277 5.4325 20.5 5.4325C24.723 5.4325 25.1535 5.4325 26.773 5.4325C28.0405 5.46983 29.2935 5.71213 30.4835 6.15C31.5001 6.52778 32.4181 7.13046 33.169 7.913C33.9118 8.64843 34.4854 9.53687 34.85 10.5165C35.2879 11.7065 35.5302 12.9595 35.5675 14.227C35.5675 15.8465 35.5675 16.277 35.5675 20.5C35.5675 24.723 35.711 25.1535 35.6495 26.773V26.7935ZM32.3695 11.5415C32.1254 10.8793 31.7406 10.278 31.2416 9.77894C30.7425 9.27991 30.1412 8.89508 29.479 8.651C28.5698 8.33583 27.6122 8.18317 26.65 8.2C25.051 8.2 24.6 8.2 20.5 8.2C16.4 8.2 15.949 8.2 14.35 8.2C13.3829 8.20945 12.4252 8.3899 11.521 8.733C10.869 8.96599 10.274 9.33511 9.7756 9.81581C9.27722 10.2965 8.88687 10.8778 8.6305 11.521C8.33279 12.434 8.18735 13.3898 8.2 14.35C8.2 15.949 8.2 16.4 8.2 20.5C8.2 24.6 8.2 25.051 8.2 26.65C8.22032 27.616 8.40043 28.5719 8.733 29.479C8.97708 30.1412 9.36191 30.7425 9.86094 31.2416C10.36 31.7406 10.9613 32.1254 11.6235 32.3695C12.4982 32.6912 13.4186 32.8711 14.35 32.9025C15.949 32.9025 16.4 32.9025 20.5 32.9025C24.6 32.9025 25.051 32.9025 26.65 32.9025C27.6171 32.893 28.5748 32.7126 29.479 32.3695C30.1412 32.1254 30.7425 31.7406 31.2416 31.2416C31.7406 30.7425 32.1254 30.1412 32.3695 29.479C32.7126 28.5748 32.893 27.6171 32.9025 26.65C32.9025 25.051 32.9025 24.6 32.9025 20.5C32.9025 16.4 32.9025 15.949 32.9025 14.35C32.9031 13.382 32.7223 12.4224 32.3695 11.521V11.5415ZM20.5 28.331C19.4726 28.331 18.4553 28.1283 17.5063 27.7345C16.5574 27.3407 15.6954 26.7636 14.9699 26.0361C14.2443 25.3087 13.6695 24.4452 13.2781 23.4952C12.8868 22.5453 12.6868 21.5274 12.6895 20.5C12.6895 18.9503 13.1493 17.4354 14.0107 16.1472C14.8721 14.859 16.0963 13.8553 17.5285 13.2632C18.9606 12.6711 20.5362 12.5172 22.0558 12.821C23.5754 13.1248 24.9707 13.8727 26.0651 14.9699C27.1595 16.0672 27.9037 17.4644 28.2035 18.9849C28.5034 20.5053 28.3454 22.0805 27.7495 23.511C27.1536 24.9416 26.1467 26.1632 24.8562 27.0212C23.5657 27.8792 22.0497 28.3351 20.5 28.331ZM28.7 14.2065C28.2468 14.1585 27.8274 13.9446 27.5227 13.6058C27.2179 13.267 27.0492 12.8274 27.0492 12.3717C27.0492 11.916 27.2179 11.4765 27.5227 11.1377C27.8274 10.7989 28.2468 10.585 28.7 10.537C29.1532 10.585 29.5726 10.7989 29.8773 11.1377C30.1821 11.4765 30.3508 11.916 30.3508 12.3717C30.3508 12.8274 30.1821 13.267 29.8773 13.6058C29.5726 13.9446 29.1532 14.1585 28.7 14.2065Z" fill="url(#paint0_linear_2_11)"/>
<defs>
<linearGradient id="paint0_linear_2_11" x1="20.5" y1="0" x2="20.5" y2="41" gradientUnits="none">
<stop stop-color="#1D1D1D"/>
<stop offset="0.5" stop-color="#023650"/>
<stop offset="1"/>
</linearGradient>
</defs>
</svg>
