<svg xmlns="http://www.w3.org/2000/svg" width="480" height="480" viewBox="0 0 480 480">
  <rect width="100%" height="100%" fill="#fff"/>
  <!-- corner finder squares -->
  <rect x="28" y="28" width="120" height="120" fill="#000" rx="6"/>
  <rect x="336" y="28" width="120" height="120" fill="#000" rx="6"/>
  <rect x="28" y="336" width="120" height="120" fill="#000" rx="6"/>
  <rect x="50" y="50" width="80" height="80" fill="#fff" rx="4"/>
  <rect x="358" y="50" width="80" height="80" fill="#fff" rx="4"/>
  <rect x="50" y="358" width="80" height="80" fill="#fff" rx="4"/>

  <!-- simple QR-like modules (decorative) -->
  <g fill="#000">
    <rect x="170" y="80" width="18" height="18"/>
    <rect x="196" y="80" width="18" height="18"/>
    <rect x="222" y="80" width="18" height="18"/>
    <rect x="248" y="80" width="18" height="18"/>

    <rect x="170" y="106" width="18" height="18"/>
    <rect x="196" y="132" width="18" height="18"/>
    <rect x="222" y="132" width="18" height="18"/>

    <rect x="120" y="170" width="18" height="18"/>
    <rect x="144" y="170" width="18" height="18"/>
    <rect x="168" y="170" width="18" height="18"/>
    <rect x="192" y="170" width="18" height="18"/>
    <rect x="216" y="170" width="18" height="18"/>
    <rect x="240" y="170" width="18" height="18"/>
    <rect x="264" y="170" width="18" height="18"/>

    <rect x="300" y="198" width="18" height="18"/>
    <rect x="276" y="198" width="18" height="18"/>
    <rect x="252" y="198" width="18" height="18"/>

    <rect x="120" y="220" width="18" height="18"/>
    <rect x="144" y="220" width="18" height="18"/>
    <rect x="168" y="220" width="18" height="18"/>
    <rect x="216" y="220" width="18" height="18"/>
    <rect x="240" y="220" width="18" height="18"/>

    <rect x="300" y="260" width="18" height="18"/>
    <rect x="276" y="260" width="18" height="18"/>
    <rect x="252" y="260" width="18" height="18"/>
  </g>

  <!-- decorative center frame and label -->
  <g fill="none" stroke="#000" stroke-width="6">
    <rect x="188" y="188" width="104" height="104" rx="6"/>
    <line x1="212" y1="188" x2="212" y2="164" />
  </g>
  <text x="240" y="255" text-anchor="middle" font-size="22" fill="#000" font-family="sans-serif" font-weight="700">SCAN
ME</text>
</svg>
